<?xml version="1.0" encoding="UTF-8"?>
<!DOCTYPE svg PUBLIC "-//W3C//DTD SVG 1.1//EN" "http://www.w3.org/Graphics/SVG/1.1/DTD/svg11.dtd">
<svg xmlns="http://www.w3.org/2000/svg" version="1.1" width="200px" height="200px" style="shape-rendering:geometricPrecision; text-rendering:geometricPrecision; image-rendering:optimizeQuality; fill-rule:evenodd; clip-rule:evenodd" xmlns:xlink="http://www.w3.org/1999/xlink">
<g><path style="opacity:1" fill="#fcfdfd" d="M -0.5,-0.5 C 66.1667,-0.5 132.833,-0.5 199.5,-0.5C 199.5,32.5 199.5,65.5 199.5,98.5C 182.689,70.8911 166.355,42.8911 150.5,14.5C 116.5,13.1667 82.5,13.1667 48.5,14.5C 32.6448,42.8911 16.3114,70.8911 -0.5,98.5C -0.5,65.5 -0.5,32.5 -0.5,-0.5 Z"/></g>
<g><path style="opacity:1" fill="#083e53" d="M 199.5,98.5 C 199.5,99.1667 199.5,99.8333 199.5,100.5C 182.697,128.831 166.03,157.331 149.5,186C 116.167,186.667 82.8333,186.667 49.5,186C 32.9699,157.331 16.3032,128.831 -0.5,100.5C -0.5,99.8333 -0.5,99.1667 -0.5,98.5C 16.3114,70.8911 32.6448,42.8911 48.5,14.5C 82.5,13.1667 116.5,13.1667 150.5,14.5C 166.355,42.8911 182.689,70.8911 199.5,98.5 Z"/></g>
<g><path style="opacity:1" fill="#fdfdfd" d="M 99.5,47.5 C 131.489,48.8218 147.489,65.4884 147.5,97.5C 148.048,130.282 132.048,148.282 99.5,151.5C 87.5,151.5 75.5,151.5 63.5,151.5C 63.5,116.833 63.5,82.1667 63.5,47.5C 75.5,47.5 87.5,47.5 99.5,47.5 Z"/></g>
<g><path style="opacity:1" fill="#adbfc6" d="M 99.5,47.5 C 87.5,47.5 75.5,47.5 63.5,47.5C 63.5,82.1667 63.5,116.833 63.5,151.5C 75.5,151.5 87.5,151.5 99.5,151.5C 87.3446,152.495 75.0113,152.829 62.5,152.5C 62.5,117.167 62.5,81.8333 62.5,46.5C 75.0113,46.1714 87.3446,46.5048 99.5,47.5 Z"/></g>
<g><path style="opacity:1" fill="#6b8c98" d="M 84.5,67.5 C 84.5,88.8333 84.5,110.167 84.5,131.5C 89.1667,131.5 93.8333,131.5 98.5,131.5C 93.6946,132.487 88.6946,132.821 83.5,132.5C 83.1693,110.66 83.5027,88.9936 84.5,67.5 Z"/></g>
<g><path style="opacity:1" fill="#083e53" d="M 84.5,67.5 C 117.655,64.1536 131.155,78.8202 125,111.5C 120.885,124.317 112.052,130.984 98.5,131.5C 93.8333,131.5 89.1667,131.5 84.5,131.5C 84.5,110.167 84.5,88.8333 84.5,67.5 Z"/></g>
<g><path style="opacity:1" fill="#fdfefe" d="M -0.5,100.5 C 16.3032,128.831 32.9699,157.331 49.5,186C 82.8333,186.667 116.167,186.667 149.5,186C 166.03,157.331 182.697,128.831 199.5,100.5C 199.5,133.5 199.5,166.5 199.5,199.5C 132.833,199.5 66.1667,199.5 -0.5,199.5C -0.5,166.5 -0.5,133.5 -0.5,100.5 Z"/></g>
</svg>
